<?xml version="1.0" encoding="UTF-8" standalone="no"?>
<!-- Created with Inkscape (http://www.inkscape.org/) -->

<svg
   width="210mm"
   height="297mm"
   viewBox="0 0 210 297"
   version="1.1"
   id="svg2567"
   xml:space="preserve"
   xmlns="http://www.w3.org/2000/svg"
   xmlns:svg="http://www.w3.org/2000/svg"><defs
     id="defs2564"><rect
       x="336.16368"
       y="379.32866"
       width="576.84117"
       height="170.04389"
       id="rect8277" /><rect
       x="312.61914"
       y="412.02941"
       width="330.93156"
       height="112.49057"
       id="rect8221" /><rect
       x="367.55639"
       y="383.25275"
       width="359.70822"
       height="129.49496"
       id="rect6629" /><rect
       x="353.16807"
       y="404.18123"
       width="364.94033"
       height="136.03511"
       id="rect6615" /><rect
       x="329.62353"
       y="374.09654"
       width="350.55201"
       height="132.11102"
       id="rect6609" /></defs><g
     id="layer1"><path
       style="fill:#033d41;fill-opacity:1;stroke-width:0.277125"
       d="m 89.197505,93.986994 c 0.76635,-2.477038 -6.83295,-13.336071 -12.31828,-17.602234 l -2.46378,-1.916182 -3.198567,-1.266844 c -9.747861,-3.8608 -14.945177,-4.654353 -24.009037,-3.665821 -7.228711,0.788385 -7.015444,0.664874 -4.383716,2.538774 1.028613,0.732415 2.44953,1.905644 3.157594,2.607175 l 1.287389,1.275511 0.193625,1.28142 c 0.227914,1.508347 0.282791,1.511952 -1.780324,-0.116936 -2.551746,-2.014675 -5.231623,-3.500474 -7.661975,-4.248014 -2.847367,-0.875808 -4.588634,-3.502157 -3.168517,-4.779066 3.093794,-2.78181 7.054554,-5.34167 8.70588,-5.626656 l 1.097356,-0.189382 0.02343,0.471919 c 0.04939,0.994831 -0.402831,1.677808 -1.837107,2.774553 -3.803993,2.908793 -3.974581,2.771371 2.30664,1.85819 17.770352,-2.5835 31.080909,2.314498 40.506689,14.905586 1.74813,2.335181 4.8053,8.39073 5.05035,10.003579 l 0.16193,1.065761 -0.88389,0.473041 c -0.48614,0.260174 -0.8397,0.330205 -0.78569,0.155626 z"
       id="path6553" /><text
       xml:space="preserve"
       transform="scale(0.26458333)"
       id="text6607"
       style="font-size:40px;font-family:Phosphate;-inkscape-font-specification:'Phosphate, Normal';white-space:pre;shape-inside:url(#rect6609);display:inline;opacity:0.184;fill:#033d41;fill-opacity:1;stroke:#000000;stroke-width:4.15748;stroke-dasharray:none" /><text
       xml:space="preserve"
       transform="scale(0.26458333)"
       id="text6613"
       style="font-size:40px;font-family:Phosphate;-inkscape-font-specification:'Phosphate, Normal';white-space:pre;shape-inside:url(#rect6615);display:inline;opacity:0.184;fill:#033d41;fill-opacity:1;stroke:#000000;stroke-width:4.15748;stroke-dasharray:none" /><text
       xml:space="preserve"
       style="font-size:10.5833px;font-family:Phosphate;-inkscape-font-specification:'Phosphate, Normal';opacity:0.184;fill:#033d41;fill-opacity:1;stroke:#000000;stroke-width:1.1;stroke-dasharray:none"
       x="131.16542"
       y="114.55344"
       id="text6621"><tspan
         id="tspan6619"
         style="stroke-width:1.1"
         x="131.16542"
         y="114.55344" /></text><text
       xml:space="preserve"
       style="font-size:10.5833px;font-family:Phosphate;-inkscape-font-specification:'Phosphate, Normal';opacity:0.184;fill:#033d41;fill-opacity:1;stroke:#000000;stroke-width:1.1;stroke-dasharray:none"
       x="125.6281"
       y="105.55528"
       id="text6625"><tspan
         id="tspan6623"
         style="stroke-width:1.1"
         x="125.6281"
         y="105.55528" /></text><text
       xml:space="preserve"
       transform="matrix(0.26458333,0,0,0.26458333,-48.451606,-2.0764974)"
       id="text8275"
       style="font-style:normal;font-variant:normal;font-weight:normal;font-stretch:normal;font-size:37.3333px;font-family:'Comic Sans MS';-inkscape-font-specification:'Comic Sans MS, Normal';font-variant-ligatures:normal;font-variant-caps:normal;font-variant-numeric:normal;font-variant-east-asian:normal;text-align:center;white-space:pre;shape-inside:url(#rect8277);display:inline;opacity:1;fill:#033d41;fill-opacity:1;stroke:#033d41;stroke-width:0.377953;stroke-dasharray:none;stroke-opacity:1"
       x="184.71094"
       y="0"><tspan
         x="349.37849"
         y="411.35584"
         id="tspan8394">I took this photo of Mt. Rainier </tspan><tspan
         x="403.86542"
         y="458.02246"
         id="tspan8396">hiking there last summer!</tspan></text></g></svg>
