<?xml version="1.0" encoding="UTF-8" standalone="no"?>
<!-- Created with Inkscape (http://www.inkscape.org/) -->

<svg
   width="200"
   height="70"
   viewBox="0 0 52.916666 18.520833"
   version="1.1"
   id="svg5"
   inkscape:version="1.2 (dc2aeda, 2022-05-15)"
   sodipodi:docname="clogo.svg"
   xmlns:inkscape="http://www.inkscape.org/namespaces/inkscape"
   xmlns:sodipodi="http://sodipodi.sourceforge.net/DTD/sodipodi-0.dtd"
   xmlns="http://www.w3.org/2000/svg"
   xmlns:svg="http://www.w3.org/2000/svg">
  <sodipodi:namedview
     id="namedview7"
     pagecolor="#ffffff"
     bordercolor="#000000"
     borderopacity="0.25"
     inkscape:showpageshadow="2"
     inkscape:pageopacity="0.0"
     inkscape:pagecheckerboard="0"
     inkscape:deskcolor="#d1d1d1"
     inkscape:document-units="mm"
     showgrid="false"
     inkscape:zoom="3.3714286"
     inkscape:cx="99.957627"
     inkscape:cy="35"
     inkscape:window-width="1309"
     inkscape:window-height="456"
     inkscape:window-x="0"
     inkscape:window-y="38"
     inkscape:window-maximized="0"
     inkscape:current-layer="layer1" />
  <defs
     id="defs2">
    <rect
       x="16.816553"
       y="23.543175"
       width="437.23038"
       height="174.89215"
       id="rect110" />
  </defs>
  <g
     inkscape:label="Layer 1"
     inkscape:groupmode="layer"
     id="layer1">
    <text
       xml:space="preserve"
       transform="scale(0.26458333)"
       id="text108"
       style="font-size:42.6667px;font-family:'Lao MN';-inkscape-font-specification:'Lao MN, Normal';white-space:pre;shape-inside:url(#rect110);fill:#000000" />
    <g
       aria-label="Christie Loughlin"
       id="text116"
       style="font-size:11.2889px;font-family:'Lao MN';-inkscape-font-specification:'Lao MN, Normal';stroke-width:0.264583"
       transform="matrix(0.57359894,0,0,1.0333944,-2.4368493,-3.2869023)">
      <path
         d="m 6.5991231,11.500889 q 0,0.76619 0.2315107,1.37804 0.2315106,0.606337 0.6338982,1.030774 0.4078997,0.418924 0.9591155,0.644922 0.5512159,0.220486 1.1961384,0.220486 0.3858511,0 0.7441411,-0.148828 0.358291,-0.148828 0.661459,-0.385851 0.308681,-0.242535 0.551216,-0.540191 0.242535,-0.303169 0.396876,-0.61185 l 0.518142,0.33073 q -0.225998,0.369314 -0.534679,0.711068 -0.308681,0.336242 -0.716581,0.600825 -0.402387,0.259072 -0.915018,0.413412 -0.5071184,0.154341 -1.1355044,0.154341 -0.9095062,0 -1.6536476,-0.303169 Q 6.7975608,14.692429 6.2683936,14.174286 5.7392264,13.656143 5.447082,12.967124 5.1604498,12.272592 5.1604498,11.500889 q 0,-0.51263 0.1322918,-0.9977 Q 5.4250334,10.012607 5.6730805,9.5881705 5.9266398,9.1582221 6.2849301,8.805444 6.6487325,8.4471537 7.1007295,8.1935944 7.5582387,7.9345229 8.0984302,7.796719 8.6386217,7.6534029 9.2504713,7.6534029 q 0.5842888,0 1.0748707,0.1598526 0.496094,0.1543404 0.898482,0.4134118 0.4079,0.2590715 0.722093,0.6008253 0.319705,0.3362417 0.545703,0.7055563 L 11.956941,9.885827 Q 11.499432,8.9983695 10.93168,8.5904698 10.363927,8.1770579 9.6252981,8.1770579 q -0.6338982,0 -1.1851141,0.2315107 Q 7.8889682,8.6400792 7.4755563,9.0700276 7.0676566,9.4999759 6.8306338,10.117338 6.5991231,10.729187 6.5991231,11.500889 Z"
         id="path326" />
      <path
         d="m 15.32487,10.519725 q 0.501606,-0.5732643 1.058334,-0.8543843 0.556728,-0.2866323 1.12448,-0.2866323 0.297657,0 0.551216,0.1322918 0.259072,0.1322918 0.451997,0.3638025 0.192926,0.2315103 0.303169,0.5457033 0.110243,0.308681 0.110243,0.661459 v 4.045925 h -1.118968 v -3.852999 q 0,-0.56224 -0.253559,-0.848872 -0.25356,-0.292145 -0.650435,-0.292145 -0.176389,0 -0.374827,0.06063 -0.198437,0.06063 -0.402387,0.170877 -0.20395,0.104731 -0.4079,0.253559 -0.20395,0.148828 -0.391363,0.33073 v 4.17822 H 14.200389 V 6.925798 l 0.804776,-0.3197052 h 0.319705 z"
         id="path328" />
      <path
         d="m 21.707949,9.3787084 h 0.170877 l 0.148828,1.1520416 q 0.132292,-0.25356 0.33073,-0.463022 0.198438,-0.2094618 0.43546,-0.3638022 0.242535,-0.1543405 0.507119,-0.2370228 0.270096,-0.088195 0.545704,-0.088195 0.248047,0 0.48507,0.066146 0.242535,0.066146 0.451997,0.2094621 l -0.352779,0.9425789 q -0.110243,-0.121267 -0.23151,-0.192925 -0.121268,-0.07717 -0.248047,-0.115755 -0.12678,-0.0441 -0.259072,-0.05512 -0.132292,-0.01102 -0.264583,-0.01102 -0.209462,0 -0.413412,0.06063 -0.198438,0.06063 -0.380339,0.181902 -0.181901,0.115755 -0.336242,0.303168 -0.15434,0.181902 -0.270096,0.429949 V 15.12789 H 20.908686 V 9.6873893 Z"
         id="path330" />
      <path
         d="M 25.875141,9.6984136 26.66338,9.3787084 h 0.325217 V 15.12789 h -1.113456 z m -0.08819,-2.3757402 q 0,-0.1322918 0.04961,-0.2480472 0.04961,-0.1157553 0.137804,-0.2039498 0.08819,-0.088195 0.20395,-0.137804 0.115755,-0.049609 0.248047,-0.049609 0.132292,0 0.248047,0.049609 0.115756,0.049609 0.20395,0.137804 0.08819,0.088195 0.137804,0.2039498 0.04961,0.1157554 0.04961,0.2480472 0,0.1322918 -0.04961,0.2480471 -0.04961,0.1157553 -0.137804,0.2039498 -0.08819,0.088195 -0.20395,0.137804 -0.115755,0.049609 -0.248047,0.049609 -0.132292,0 -0.248047,-0.049609 -0.115755,-0.049609 -0.20395,-0.137804 -0.08819,-0.088195 -0.137804,-0.2039498 -0.04961,-0.1157553 -0.04961,-0.2480471 z"
         id="path332" />
      <path
         d="m 30.753401,14.857794 q 0.225998,0 0.418924,-0.06615 0.192925,-0.07166 0.330729,-0.187413 0.143316,-0.115756 0.220487,-0.264584 0.07717,-0.15434 0.07717,-0.314193 0,-0.259071 -0.132292,-0.451997 -0.12678,-0.192926 -0.341754,-0.341754 -0.209462,-0.15434 -0.479558,-0.28112 -0.270095,-0.12678 -0.551215,-0.259071 -0.281121,-0.137804 -0.551216,-0.286633 -0.270096,-0.15434 -0.48507,-0.35829 -0.209462,-0.20395 -0.341754,-0.468533 -0.12678,-0.270096 -0.12678,-0.628386 0,-0.336242 0.143316,-0.622874 0.143317,-0.292145 0.396876,-0.5016067 0.259071,-0.2094621 0.611849,-0.3252174 0.352779,-0.1212675 0.771703,-0.1212675 0.28112,0 0.523655,0.038585 0.242535,0.038585 0.474045,0.1488283 0.237023,0.1102432 0.468534,0.3197052 0.23151,0.2039501 0.490582,0.5346791 l -0.413412,0.369315 q -0.319705,-0.523655 -0.716581,-0.777214 -0.391363,-0.2590719 -0.837848,-0.2590719 -0.242535,0 -0.440972,0.060634 -0.198438,0.055122 -0.341754,0.1598526 -0.137804,0.099219 -0.220487,0.2370223 -0.07717,0.137804 -0.07717,0.292145 0,0.253559 0.137804,0.440972 0.143316,0.187414 0.374827,0.341754 0.231511,0.148829 0.523655,0.275608 0.297657,0.12678 0.600825,0.259072 0.308681,0.132291 0.600826,0.286632 0.297656,0.15434 0.529167,0.35829 0.23151,0.198438 0.369314,0.463021 0.143316,0.264584 0.143316,0.617362 0,0.35829 -0.132291,0.672483 -0.132292,0.308681 -0.402388,0.540192 -0.264583,0.225999 -0.666971,0.35829 -0.402388,0.132292 -0.948091,0.132292 -0.248047,0 -0.512631,-0.03858 -0.259071,-0.03859 -0.523655,-0.148828 -0.264584,-0.115756 -0.529167,-0.319705 -0.264584,-0.20395 -0.518143,-0.53468 l 0.457509,-0.413412 q 0.20395,0.286633 0.391363,0.490582 0.187414,0.198438 0.380339,0.33073 0.198438,0.12678 0.402388,0.187413 0.209462,0.05512 0.451997,0.05512 z"
         id="path334" />
      <path
         d="m 35.675758,7.5652083 h 0.319705 v 1.9182311 h 1.256772 v 0.4795578 h -1.256772 v 3.9742658 q 0,0.12678 0.0441,0.237023 0.04961,0.110243 0.126779,0.192926 0.08268,0.08268 0.192926,0.132292 0.110243,0.0441 0.242535,0.0441 0.187413,0 0.341754,-0.09371 0.15434,-0.09371 0.270095,-0.231511 l 0.28112,0.187414 q -0.23151,0.391363 -0.600825,0.617362 -0.369315,0.225998 -0.915018,0.225998 -0.28112,0 -0.490582,-0.09922 -0.209462,-0.09371 -0.347266,-0.264583 -0.132292,-0.176389 -0.198438,-0.413412 -0.06615,-0.242535 -0.06615,-0.53468 V 9.9629972 h -0.981164 v -0.209462 l 0.981164,-0.2700958 v -1.604038 z"
         id="path336" />
      <path
         d="m 39.060225,9.6984136 0.788238,-0.3197052 h 0.325218 V 15.12789 h -1.113456 z m -0.0882,-2.3757402 q 0,-0.1322918 0.04961,-0.2480472 0.04961,-0.1157553 0.137804,-0.2039498 0.08819,-0.088195 0.203949,-0.137804 0.115756,-0.049609 0.248048,-0.049609 0.132291,0 0.248047,0.049609 0.115755,0.049609 0.20395,0.137804 0.08819,0.088195 0.137804,0.2039498 0.04961,0.1157554 0.04961,0.2480472 0,0.1322918 -0.04961,0.2480471 -0.04961,0.1157553 -0.137804,0.2039498 -0.08819,0.088195 -0.20395,0.137804 -0.115756,0.049609 -0.248047,0.049609 -0.132292,0 -0.248048,-0.049609 -0.11575,-0.049609 -0.203944,-0.137804 Q 39.071249,7.6864758 39.02164,7.5707205 38.97203,7.4549652 38.97203,7.3226734 Z"
         id="path338" />
      <path
         d="m 44.62199,15.249157 q -0.573265,0 -1.080383,-0.214974 Q 43.04,14.819209 42.665174,14.449894 42.290347,14.08058 42.069861,13.584485 q -0.214975,-0.501606 -0.214975,-1.063846 0,-0.677996 0.198438,-1.25126 0.198438,-0.578777 0.56224,-0.997701 0.363803,-0.4189239 0.870921,-0.6559468 0.512631,-0.2370228 1.141017,-0.2370228 0.551216,0 1.014237,0.1984377 0.463021,0.1929256 0.793751,0.5236549 0.336242,0.325218 0.518143,0.755166 0.187413,0.429948 0.187413,0.898482 h -4.205777 q 0,0.567752 0.143316,1.052822 0.148829,0.48507 0.413412,0.837848 0.264584,0.352778 0.628386,0.551216 0.363803,0.198438 0.799263,0.198438 0.363803,0 0.700045,-0.115756 0.336241,-0.121267 0.606337,-0.314193 0.275608,-0.192925 0.468533,-0.440972 0.192926,-0.248048 0.270096,-0.512631 l 0.325217,0.143316 q -0.121267,0.43546 -0.391363,0.815799 -0.270096,0.380339 -0.633898,0.666972 -0.35829,0.28112 -0.782726,0.446484 -0.424437,0.165365 -0.859897,0.165365 z m 1.113456,-3.946705 q 0,-0.319705 -0.115755,-0.595313 -0.110244,-0.275608 -0.308681,-0.474046 -0.198438,-0.20395 -0.463022,-0.3197052 -0.264583,-0.1157553 -0.567752,-0.1157553 -0.253559,0 -0.48507,0.1157553 -0.231511,0.1102432 -0.413412,0.3141932 -0.181901,0.198438 -0.303169,0.474045 -0.115755,0.275608 -0.137803,0.595314 z"
         id="path340" />
      <path
         d="m 51.197998,7.8187676 h 1.229211 v 6.8350764 h 3.682122 v 0.474046 h -4.911333 z"
         id="path342" />
      <path
         d="m 59.807988,15.249157 q -0.650435,0 -1.196139,-0.225998 -0.545703,-0.225999 -0.942579,-0.61185 -0.396875,-0.391363 -0.622874,-0.909506 -0.220486,-0.523655 -0.220486,-1.118968 0,-0.622874 0.220486,-1.168578 0.225999,-0.551216 0.622874,-0.959115 0.396876,-0.4079001 0.942579,-0.6394108 0.545704,-0.2370228 1.196139,-0.2370228 0.644922,0 1.185114,0.2149742 0.545703,0.2149742 0.942579,0.5898014 0.396875,0.374826 0.617361,0.881945 0.225999,0.501606 0.225999,1.080383 0,0.63941 -0.225999,1.207163 -0.220486,0.56224 -0.617361,0.986676 -0.396876,0.418924 -0.942579,0.666971 -0.540192,0.242535 -1.185114,0.242535 z m 0.214974,-0.413412 q 0.330729,0 0.606337,-0.170877 0.275608,-0.170877 0.474046,-0.457509 0.198437,-0.292144 0.308681,-0.672483 0.110243,-0.380339 0.110243,-0.804775 0,-0.61185 -0.104731,-1.146529 -0.104731,-0.53468 -0.341754,-0.931555 -0.237023,-0.396875 -0.617362,-0.622874 -0.380339,-0.2315105 -0.926042,-0.2315105 -0.28112,0 -0.545704,0.1653647 -0.264584,0.1598528 -0.468533,0.4409728 -0.198438,0.28112 -0.319706,0.661459 -0.121267,0.374827 -0.121267,0.799263 0,0.617362 0.126779,1.157553 0.132292,0.540192 0.380339,0.942579 0.25356,0.402388 0.61185,0.639411 0.363802,0.23151 0.826824,0.23151 z"
         id="path344" />
      <path
         d="m 65.496535,9.4834394 v 4.0183636 q 0,0.209462 0.09371,0.396875 0.09922,0.187414 0.270095,0.325218 0.170877,0.137804 0.391364,0.220486 0.225998,0.07717 0.48507,0.07717 0.165364,0 0.352778,-0.07166 0.192925,-0.07166 0.374826,-0.192925 0.181902,-0.12678 0.336242,-0.292145 0.159853,-0.170877 0.270096,-0.35829 V 9.4834394 h 1.113456 V 15.12789 h -1.113456 v -1.058335 q -0.148828,0.242535 -0.374827,0.457509 -0.220486,0.214975 -0.479558,0.374827 -0.259071,0.159853 -0.534679,0.253559 -0.275608,0.09371 -0.523655,0.09371 -0.369315,0 -0.694532,-0.137804 -0.325217,-0.137804 -0.567752,-0.374827 -0.242535,-0.237022 -0.385851,-0.556728 -0.137804,-0.319705 -0.137804,-0.677995 V 9.4834394 Z"
         id="path346" />
      <path
         d="m 76.482265,9.781096 v 0.474046 h -1.069359 q 0.159853,0.225998 0.259072,0.518143 0.104731,0.286632 0.104731,0.567752 0,0.440972 -0.192926,0.799263 -0.192925,0.35829 -0.540191,0.617362 -0.341754,0.259071 -0.821312,0.402387 -0.479558,0.137804 -1.058334,0.137804 -0.214974,0 -0.440973,-0.03307 -0.220486,-0.03307 -0.385851,-0.08819 -0.159853,0.132291 -0.270096,0.30868 -0.110243,0.170877 -0.110243,0.347266 0,0.170877 0.181901,0.270096 0.187414,0.09922 0.529167,0.115755 l 2.083596,0.09371 q 0.501607,0.02205 0.832336,0.121268 0.336242,0.09371 0.53468,0.259071 0.198437,0.159853 0.28112,0.380339 0.08268,0.220486 0.08268,0.496094 0,0.490582 -0.231511,0.887458 -0.225998,0.402387 -0.655946,0.683507 -0.429949,0.281121 -1.052823,0.435461 -0.617361,0.15434 -1.400088,0.15434 -0.700044,0 -1.223699,-0.08268 -0.523655,-0.08268 -0.870921,-0.237023 -0.347266,-0.148828 -0.518143,-0.363802 -0.170877,-0.209462 -0.170877,-0.474046 0,-0.231511 0.115755,-0.446485 0.115756,-0.209462 0.297657,-0.407899 0.181901,-0.192926 0.402388,-0.374827 0.220486,-0.181901 0.43546,-0.347266 -0.15434,-0.04961 -0.292144,-0.115755 -0.132292,-0.07166 -0.231511,-0.159853 -0.09922,-0.08819 -0.15434,-0.187413 -0.05512,-0.104731 -0.05512,-0.220487 0,-0.170877 0.08819,-0.352778 0.09371,-0.187413 0.248048,-0.352778 0.159852,-0.170877 0.363802,-0.308681 0.209462,-0.143316 0.446485,-0.225998 -0.567752,-0.242535 -0.89297,-0.672484 -0.319705,-0.43546 -0.319705,-0.9977 0,-0.413412 0.187413,-0.782727 0.192926,-0.369315 0.529168,-0.6449225 0.336241,-0.2756079 0.782726,-0.4354605 0.451997,-0.1598526 0.975652,-0.1598526 0.253559,0 0.496094,0.033073 0.248048,0.033073 0.45751,0.088195 0.214974,0.055122 0.374826,0.1267797 0.165365,0.071658 0.259072,0.1543404 z m -4.525482,5.302696 q -0.12678,0.09371 -0.220486,0.209462 -0.09371,0.115756 -0.159853,0.242535 -0.06615,0.12678 -0.09922,0.25356 -0.03307,0.132291 -0.03307,0.248047 0,0.187413 0.132292,0.35829 0.132292,0.170877 0.396875,0.303169 0.264584,0.132292 0.661459,0.209462 0.402388,0.07717 0.931555,0.07717 0.56224,0 1.003213,-0.08819 0.446485,-0.08819 0.755166,-0.237022 0.314193,-0.143316 0.474045,-0.325218 0.165365,-0.176389 0.165365,-0.35829 0,-0.187413 -0.09922,-0.325217 -0.09371,-0.137804 -0.275608,-0.225999 -0.181901,-0.08819 -0.440972,-0.132292 -0.259072,-0.0441 -0.584289,-0.0441 -0.4079,0 -0.821312,-0.02205 -0.413412,-0.01654 -0.771702,-0.0441 -0.35829,-0.02205 -0.628386,-0.05512 -0.270096,-0.02756 -0.385851,-0.0441 z m 1.394576,-2.078083 q 0.237023,0 0.457509,-0.104731 0.220487,-0.110244 0.385851,-0.297657 0.170877,-0.187413 0.270096,-0.43546 0.09922,-0.25356 0.09922,-0.545704 0,-0.413412 -0.115755,-0.76619 -0.110245,-0.35829 -0.30317,-0.617362 Q 73.952184,9.9740215 73.693113,9.8251933 73.434041,9.676365 73.147409,9.676365 q -0.28112,0 -0.490582,0.1157553 -0.20395,0.1157553 -0.336242,0.3252177 -0.132291,0.20395 -0.198437,0.48507 -0.06063,0.275608 -0.06063,0.595313 0,0.380339 0.09371,0.711068 0.09371,0.33073 0.264583,0.578777 0.170877,0.242535 0.4079,0.380339 0.237023,0.137804 0.523655,0.137804 z"
         id="path348" />
      <path
         d="m 78.648547,10.519725 q 0.501606,-0.5732643 1.058334,-0.8543843 0.556728,-0.2866323 1.124481,-0.2866323 0.297656,0 0.551215,0.1322918 0.259072,0.1322918 0.451997,0.3638025 0.192926,0.2315103 0.303169,0.5457033 0.110243,0.308681 0.110243,0.661459 v 4.045925 h -1.118968 v -3.852999 q 0,-0.56224 -0.253559,-0.848872 -0.253559,-0.292145 -0.650435,-0.292145 -0.176389,0 -0.374827,0.06063 -0.198437,0.06063 -0.402387,0.170877 -0.20395,0.104731 -0.4079,0.253559 -0.20395,0.148828 -0.391363,0.33073 v 4.178216 h -1.12448 V 6.925798 l 0.804775,-0.3197052 h 0.319705 z"
         id="path350" />
      <path
         d="M 85.356845,15.12789 H 84.232364 V 6.925798 l 0.799263,-0.3197052 h 0.325218 z"
         id="path352" />
      <path
         d="m 87.423899,9.6984136 0.788239,-0.3197052 h 0.325217 V 15.12789 h -1.113456 z m -0.08819,-2.3757402 q 0,-0.1322918 0.04961,-0.2480472 0.04961,-0.1157553 0.137804,-0.2039498 0.08819,-0.088195 0.20395,-0.137804 0.115755,-0.049609 0.248047,-0.049609 0.132292,0 0.248047,0.049609 0.115755,0.049609 0.20395,0.137804 0.08819,0.088195 0.137804,0.2039498 0.04961,0.1157554 0.04961,0.2480472 0,0.1322918 -0.04961,0.2480471 -0.04961,0.1157553 -0.137804,0.2039498 -0.08819,0.088195 -0.20395,0.137804 -0.115755,0.049609 -0.248047,0.049609 -0.132292,0 -0.248047,-0.049609 -0.115756,-0.049609 -0.20395,-0.137804 -0.08819,-0.088195 -0.137804,-0.2039498 -0.04961,-0.1157553 -0.04961,-0.2480471 z"
         id="path354" />
      <path
         d="m 91.403678,9.3787084 h 0.319706 v 1.1410166 q 0.51263,-0.5732643 1.063846,-0.8543843 0.551216,-0.2866323 1.118968,-0.2866323 0.297657,0 0.551216,0.1322918 0.259072,0.1322918 0.451997,0.3638025 0.192926,0.2315103 0.303169,0.5457033 0.110243,0.308681 0.110243,0.661459 v 4.045925 h -1.118968 v -3.852999 q 0,-0.28112 -0.06615,-0.490582 -0.06615,-0.214974 -0.187413,-0.35829 -0.121268,-0.143317 -0.286633,-0.214975 -0.159852,-0.07717 -0.35829,-0.07717 -0.176389,0 -0.374827,0.06063 -0.198437,0.06063 -0.407899,0.170877 -0.20395,0.104731 -0.4079,0.253559 -0.20395,0.148828 -0.391363,0.33073 v 4.17822 H 90.598903 V 9.6929015 Z"
         id="path356" />
    </g>
  </g>
</svg>
